<svg width="162" height="82" viewBox="0 0 162 82" fill="none" xmlns="http://www.w3.org/2000/svg">
    <path
        d="M10.8609 65.416C10.8609 66.92 10.5009 68.112 9.78093 68.992C9.06093 69.856 7.87693 70.288 6.22893 70.288C4.59693 70.288 3.10093 69.992 1.74093 69.4L2.17293 67.912C3.45293 68.36 4.76493 68.584 6.10893 68.584C7.05293 68.584 7.74093 68.352 8.17293 67.888C8.62093 67.424 8.84493 66.712 8.84493 65.752C8.84493 64.792 8.72493 64.064 8.48493 63.568C8.24493 63.072 7.74093 62.768 6.97293 62.656L4.59693 62.32C3.47693 62.144 2.72493 61.688 2.34093 60.952C1.97293 60.216 1.78893 59.104 1.78893 57.616C1.78893 56.128 2.17293 54.976 2.94093 54.16C3.72493 53.328 4.79693 52.912 6.15693 52.912C7.53293 52.912 8.90893 53.168 10.2849 53.68L9.85293 55.12C8.65293 54.784 7.56493 54.616 6.58893 54.616C5.62893 54.616 4.92493 54.816 4.47693 55.216C4.02893 55.6 3.80493 56.328 3.80493 57.4C3.80493 58.472 3.91693 59.24 4.14093 59.704C4.38093 60.168 4.85293 60.448 5.55693 60.544L7.81293 60.88C8.83693 61.04 9.59693 61.464 10.0929 62.152C10.6049 62.824 10.8609 63.912 10.8609 65.416ZM16.9866 70V53.2H24.9786L24.7386 54.88H19.0506V60.736H24.2586V62.416H19.0506V68.32H25.2186V70H16.9866ZM32.5543 53.512C32.9543 53.352 33.4263 53.216 33.9703 53.104C34.5143 52.976 35.2583 52.912 36.2023 52.912C37.1623 52.912 38.1063 53.056 39.0343 53.344L38.6743 54.904C37.8743 54.712 37.0823 54.616 36.2983 54.616C35.5303 54.616 34.9543 54.648 34.5703 54.712C34.1863 54.776 33.8743 54.888 33.6343 55.048C33.4103 55.208 33.2263 55.36 33.0823 55.504C32.9543 55.648 32.8583 55.872 32.7943 56.176C32.7303 56.56 32.6983 57.112 32.6983 57.832V65.368C32.6983 66.648 32.8263 67.424 33.0823 67.696C33.4983 68.128 33.9463 68.384 34.4263 68.464C34.9063 68.544 35.5223 68.584 36.2743 68.584C37.0263 68.584 37.8983 68.456 38.8903 68.2L39.3463 69.616C38.2743 70.064 37.1303 70.288 35.9143 70.288C34.7623 70.288 33.9623 70.208 33.5143 70.048C33.0663 69.888 32.7143 69.752 32.4583 69.64C32.2023 69.528 31.9703 69.336 31.7623 69.064C31.5703 68.792 31.4103 68.56 31.2823 68.368C31.1543 68.176 31.0423 67.864 30.9463 67.432C30.8663 67 30.8023 66.64 30.7543 66.352C30.7063 66.048 30.6743 65.584 30.6583 64.96C30.6263 63.744 30.6103 62.6 30.6103 61.528C30.6103 60.456 30.6183 59.648 30.6343 59.104C30.6503 58.56 30.6823 57.904 30.7303 57.136C30.7943 56.368 30.8983 55.824 31.0423 55.504C31.1863 55.168 31.3783 54.792 31.6183 54.376C31.8583 53.944 32.1703 53.656 32.5543 53.512ZM48.7187 63.568H47.1587V70H45.0947V53.2H48.7187C50.6387 53.2 52.0067 53.592 52.8227 54.376C53.6387 55.144 54.0467 56.48 54.0467 58.384C54.0467 59.696 53.8547 60.736 53.4707 61.504C53.1027 62.256 52.5107 62.792 51.6947 63.112L54.4547 70H52.3427L49.7027 63.544C49.4947 63.56 49.1667 63.568 48.7187 63.568ZM51.9587 58.912V57.856C51.9587 57.408 51.9507 57.08 51.9347 56.872C51.9187 56.648 51.8547 56.384 51.7427 56.08C51.6467 55.776 51.4867 55.552 51.2627 55.408C50.7027 55.072 49.8627 54.904 48.7427 54.904H47.1587V61.864H48.7427C49.8627 61.864 50.7027 61.696 51.2627 61.36C51.4867 61.216 51.6467 60.992 51.7427 60.688C51.8547 60.384 51.9187 60.128 51.9347 59.92C51.9507 59.696 51.9587 59.36 51.9587 58.912ZM60.6956 70V53.2H68.6876L68.4476 54.88H62.7596V60.736H67.9676V62.416H62.7596V68.32H68.9276V70H60.6956ZM72.7594 54.88V53.2H81.8794V54.88H78.3514V70H76.2874V54.88H72.7594ZM95.5687 53.2H100.369C101.665 53.2 102.785 53.376 103.729 53.728C104.129 53.872 104.449 54.144 104.689 54.544C104.929 54.928 105.121 55.28 105.265 55.6C105.409 55.92 105.505 56.448 105.553 57.184C105.649 58.368 105.697 59.8 105.697 61.48C105.697 63.144 105.681 64.32 105.649 65.008C105.617 65.696 105.513 66.456 105.337 67.288C105.177 68.104 104.905 68.656 104.521 68.944C103.577 69.648 102.193 70 100.369 70H95.5687V53.2ZM100.393 54.928H97.6327V68.224H100.393C101.497 68.224 102.337 68.04 102.913 67.672C103.313 67.416 103.537 66.912 103.585 66.16C103.601 65.92 103.609 65.56 103.609 65.08V58.072C103.609 57.592 103.601 57.24 103.585 57.016C103.569 56.776 103.505 56.496 103.393 56.176C103.297 55.856 103.137 55.624 102.913 55.48C102.337 55.112 101.497 54.928 100.393 54.928ZM112.295 53.2H114.359V70H112.295V53.2ZM122.102 70H119.99L123.974 53.2H127.478L131.462 70H129.35L128.366 65.752H123.086L122.102 70ZM127.958 64.072L125.798 54.736H125.654L123.47 64.072H127.958ZM140.722 63.568H139.162V70H137.098V53.2H140.722C142.642 53.2 144.01 53.592 144.826 54.376C145.642 55.144 146.05 56.48 146.05 58.384C146.05 59.696 145.858 60.736 145.474 61.504C145.106 62.256 144.514 62.792 143.698 63.112L146.458 70H144.346L141.706 63.544C141.498 63.56 141.17 63.568 140.722 63.568ZM143.962 58.912V57.856C143.962 57.408 143.954 57.08 143.938 56.872C143.922 56.648 143.858 56.384 143.746 56.08C143.65 55.776 143.49 55.552 143.266 55.408C142.706 55.072 141.866 54.904 140.746 54.904H139.162V61.864H140.746C141.866 61.864 142.706 61.696 143.266 61.36C143.49 61.216 143.65 60.992 143.746 60.688C143.858 60.384 143.922 60.128 143.938 59.92C143.954 59.696 143.962 59.36 143.962 58.912ZM157.235 70H155.315V64.6L151.139 53.2H153.251L156.203 62.344H156.347L159.299 53.2H161.411L157.235 64.6V70Z"
        fill="black" />
    <rect x="71.9706" y="2.12132" width="21" height="21" transform="rotate(45 71.9706 2.12132)"
        stroke="black" stroke-width="3" />
    <rect x="89.9706" y="2.12132" width="21" height="21" transform="rotate(45 89.9706 2.12132)"
        stroke="black" stroke-width="3" />
</svg>
