<svg width="24" height="24" viewBox="0 0 24 24" fill="none" xmlns="http://www.w3.org/2000/svg">
    <path
        d="M15.625 9.66667H14.9375V8.33333C14.9375 6.49333 13.3975 5 11.5 5C9.6025 5 8.0625 6.49333 8.0625 8.33333V9.66667H7.375C6.61875 9.66667 6 10.2667 6 11V17.6667C6 18.4 6.61875 19 7.375 19H15.625C16.3813 19 17 18.4 17 17.6667V11C17 10.2667 16.3813 9.66667 15.625 9.66667ZM11.5 15.6667C10.7438 15.6667 10.125 15.0667 10.125 14.3333C10.125 13.6 10.7438 13 11.5 13C12.2562 13 12.875 13.6 12.875 14.3333C12.875 15.0667 12.2562 15.6667 11.5 15.6667ZM13.6313 9.66667H9.36875V8.33333C9.36875 7.19333 10.3244 6.26667 11.5 6.26667C12.6756 6.26667 13.6313 7.19333 13.6313 8.33333V9.66667Z"
        fill="#53737A" fill-opacity="0.5" />
</svg>
